<?xml version="1.0" encoding="UTF-8" standalone="no"?>
<!-- Created with Inkscape (http://www.inkscape.org/) -->

<svg
   width="48"
   height="48"
   viewBox="0 0 12.7 12.7"
   version="1.1"
   id="svg5"
   inkscape:version="1.2.2 (1:1.2.2+202305151914+b0a8486541)"
   sodipodi:docname="yuque.svg"
   xmlns:inkscape="http://www.inkscape.org/namespaces/inkscape"
   xmlns:sodipodi="http://sodipodi.sourceforge.net/DTD/sodipodi-0.dtd"
   xmlns="http://www.w3.org/2000/svg"
   xmlns:svg="http://www.w3.org/2000/svg">
  <sodipodi:namedview
     id="namedview7"
     pagecolor="#ffffff"
     bordercolor="#666666"
     borderopacity="1.0"
     inkscape:showpageshadow="2"
     inkscape:pageopacity="0.0"
     inkscape:pagecheckerboard="0"
     inkscape:deskcolor="#d1d1d1"
     inkscape:document-units="mm"
     showgrid="false"
     inkscape:zoom="12.359637"
     inkscape:cx="21.845301"
     inkscape:cy="26.254816"
     inkscape:window-width="1920"
     inkscape:window-height="1019"
     inkscape:window-x="0"
     inkscape:window-y="25"
     inkscape:window-maximized="1"
     inkscape:current-layer="layer1" />
  <defs
     id="defs2">
    <radialGradient
       cx="50.780086"
       cy="98.37631"
       fx="50.780086"
       fy="98.37631"
       r="110.93622"
       gradientTransform="scale(1.0812362,0.92486731)"
       id="radialGradient-1"
       gradientUnits="userSpaceOnUse">
      <stop
         stop-color="#178F67"
         offset="0%"
         id="stop102" />
      <stop
         stop-color="#31CC79"
         stop-opacity="0.55"
         offset="54.6847684%"
         id="stop104" />
      <stop
         stop-color="#53E68D"
         stop-opacity="0.8"
         offset="100%"
         id="stop106" />
    </radialGradient>
    <radialGradient
       cx="38.1747213%"
       cy="86.0776601%"
       fx="38.1747213%"
       fy="86.0776601%"
       r="97.067379%"
       gradientTransform="translate(0.381747,0.860777),scale(0.855365,1.000000),rotate(-46.300512),translate(-0.381747,-0.860777)"
       id="radialGradient319">
      <stop
         stop-color="#178F67"
         offset="0%"
         id="stop313" />
      <stop
         stop-color="#31CC79"
         stop-opacity="0.55"
         offset="54.6847684%"
         id="stop315" />
      <stop
         stop-color="#53E68D"
         stop-opacity="0.8"
         offset="100%"
         id="stop317" />
    </radialGradient>
    <linearGradient
       x1="73.053706"
       y1="99.657846"
       x2="-7.3852939"
       y2="119.32756"
       id="linearGradient-3"
       gradientTransform="scale(1.1446709,0.87361355)"
       gradientUnits="userSpaceOnUse">
      <stop
         stop-color="#FFFFFF"
         stop-opacity="0"
         offset="0%"
         id="stop110" />
      <stop
         stop-color="#D6F056"
         offset="100%"
         id="stop112" />
    </linearGradient>
  </defs>
  <g
     inkscape:label="图层 1"
     inkscape:groupmode="layer"
     id="layer1">
    <g
       id="logo"
       transform="matrix(0.08437178,0,0,0.08437178,0.81081968,1.262372)">
      <g
         id="路径">
        <path
           d="m 76.566973,0 h 0.565276 0.499464 v 0 l 0.509164,0.00258488 v 0 l 0.51878,0.00273166 v 0 l 0.528315,0.00374605 v 0 l 0.537765,0.00480163 v 0 l 0.547135,0.0058984 v 0 l 0.556422,0.0070364 v 0 l 0.376066,0.0053435 v 0 l 0.380132,0.0058797 v 0 l 0.57777,0.0098518 v 0 l 0.586781,0.01112706 v 0 l 0.59571,0.01244352 v 0 l 0.40206,0.0090474 v 0 l 0.610409,0.01472914 v 0 L 84.97734,0.1113765 v 0 l 0.627746,0.0176229 v 0 l 0.423248,0.0125842 v 0 l 0.64194,0.0201602 v 0 l 0.650347,0.0217376 v 0 l 0.438195,0.0153883 v 0 l 0.441869,0.0161199 v 0 l 0.445521,0.0168636 v 0 l 0.449147,0.0176196 v 0 l 0.452749,0.0183877 v 0 l 0.456327,0.0191681 v 0 l 0.691144,0.030242 v 0 l 0.465164,0.0211724 v 0 l 0.704285,0.0333056 v 0 l 0.473848,0.0232529 v 0 l 0.477279,0.0241065 v 0 l 0.722298,0.037787 v 0 l 0.48575,0.0262939 v 0 l 0.489095,0.0271902 v 0 l 0.492415,0.0280987 v 0 l 0.495713,0.0290194 v 0 l 0.498985,0.0299523 v 0 l 0.502232,0.0308974 v 0 l 0.505456,0.0318547 v 0 l 0.508654,0.0328243 v 0 l 0.511829,0.033806 v 0 l 0.514978,0.0347999 v 0 C 117.0344,2.0253048 121.93151,15.341475 122.4526,16.934866 l 0.0274,0.08556 v 0 l 0.0213,0.07009 v 0 l 8.02717,0.43708 v 0 c 0.42837,0 0.77563,0.347259 0.77563,0.775625 0,0.307029 -0.1784,0.572392 -0.43719,0.698089 -8.23961,4.458553 -10.75685,13.518134 -9.27694,19.419456 0.47695,1.901935 1.21799,3.536872 2.04297,5.264947 l 0.52124,1.087749 c 1.90965,3.994211 4.05375,8.830658 4.40388,18.564555 0.78376,21.789197 -18.36927,41.372653 -41.032379,41.372653 l -0.247994,1e-4 v 0 l -0.529317,7.9e-4 v 0 l -0.8773,0.003 v 0 l -0.640417,0.003 v 0 l -1.04395,0.006 v 0 l -0.751517,0.005 v 0 l -0.795956,0.006 v 0 l -1.27726,0.01 v 0 l -1.377249,0.0116 v 0 l -1.47724,0.0133 v 0 l -2.125192,0.0206 v 0 l -1.710548,0.0175 v 0 l -3.073114,0.0331 v 0 l -3.350864,0.0381 v 0 l -3.628613,0.043 v 0 l -2.310487,0.0282 v 0 l -3.23619,0.0403 v 0 l -4.295212,0.0549 v 0 l -4.57296,0.0598 v 0 l -3.858349,0.0514 v 0 l -6.120821,0.083 v 0 l -4.302748,0.0593 v 0 l -7.957542,0.11142 v 0 l -8.501931,0.12111 v 0 l -7.720658,0.11151 v 0 l -4.010314,0.0584 48.46451,-55.112198 0.43919,-0.500616 v 0 l 0.437999,-0.498141 v 0 l 0.436707,-0.495795 v 0 l 2.160689,-2.448356 v 0 l 0.426871,-0.484459 v 0 l 0.424883,-0.483027 v 0 l 0.422795,-0.481723 c 0.07029,-0.08019 0.140482,-0.160323 0.210584,-0.240414 l 0.419477,-0.480013 c 0.06972,-0.07992 0.139345,-0.159794 0.208869,-0.239632 l 0.415936,-0.478597 v 0 l 0.413449,-0.477815 C 67.422582,37.708059 71.703453,32.270572 74.745093,26.034809 78.121403,16.498812 74.684314,9.3830549 71.175769,5.0715159 70.904875,4.738623 70.633555,4.4224471 70.364913,4.1231648 69.168868,2.5921449 69.983222,0.04138936 72.260873,0.04138936 c 0.185589,0 0.374949,-0.0028683 0.568062,-0.0065685 l 0.44083,-0.0088699 c 0.09937,-0.0019012 0.199667,-0.0036285 0.300901,-0.0049273 l 0.420536,-0.005038 v 0 l 0.430868,-0.0044288 v 0 l 0.292944,-0.00259379 v 0 l 0.75213,-0.00513999 v 0 L 76.08898,0.00119436 v 0 z"
           id="use123"
           style="fill:#31cc79" />
        <path
           d="m 76.566973,0 h 0.565276 0.499464 v 0 l 0.509164,0.00258488 v 0 l 0.51878,0.00273166 v 0 l 0.528315,0.00374605 v 0 l 0.537765,0.00480163 v 0 l 0.547135,0.0058984 v 0 l 0.556422,0.0070364 v 0 l 0.376066,0.0053435 v 0 l 0.380132,0.0058797 v 0 l 0.57777,0.0098518 v 0 l 0.586781,0.01112706 v 0 l 0.59571,0.01244352 v 0 l 0.40206,0.0090474 v 0 l 0.610409,0.01472914 v 0 L 84.97734,0.1113765 v 0 l 0.627746,0.0176229 v 0 l 0.423248,0.0125842 v 0 l 0.64194,0.0201602 v 0 l 0.650347,0.0217376 v 0 l 0.438195,0.0153883 v 0 l 0.441869,0.0161199 v 0 l 0.445521,0.0168636 v 0 l 0.449147,0.0176196 v 0 l 0.452749,0.0183877 v 0 l 0.456327,0.0191681 v 0 l 0.691144,0.030242 v 0 l 0.465164,0.0211724 v 0 l 0.704285,0.0333056 v 0 l 0.473848,0.0232529 v 0 l 0.477279,0.0241065 v 0 l 0.722298,0.037787 v 0 l 0.48575,0.0262939 v 0 l 0.489095,0.0271902 v 0 l 0.492415,0.0280987 v 0 l 0.495713,0.0290194 v 0 l 0.498985,0.0299523 v 0 l 0.502232,0.0308974 v 0 l 0.505456,0.0318547 v 0 l 0.508654,0.0328243 v 0 l 0.511829,0.033806 v 0 l 0.514978,0.0347999 v 0 C 117.0344,2.0253048 121.93151,15.341475 122.4526,16.934866 l 0.0274,0.08556 v 0 l 0.0213,0.07009 v 0 l 8.02717,0.43708 v 0 c 0.42837,0 0.77563,0.347259 0.77563,0.775625 0,0.307029 -0.1784,0.572392 -0.43719,0.698089 -8.23961,4.458553 -10.75685,13.518134 -9.27694,19.419456 0.47695,1.901935 1.21799,3.536872 2.04297,5.264947 l 0.52124,1.087749 c 1.90965,3.994211 4.05375,8.830658 4.40388,18.564555 0.78376,21.789197 -18.36927,41.372653 -41.032379,41.372653 l -0.247994,1e-4 v 0 l -0.529317,7.9e-4 v 0 l -0.8773,0.003 v 0 l -0.640417,0.003 v 0 l -1.04395,0.006 v 0 l -0.751517,0.005 v 0 l -0.795956,0.006 v 0 l -1.27726,0.01 v 0 l -1.377249,0.0116 v 0 l -1.47724,0.0133 v 0 l -2.125192,0.0206 v 0 l -1.710548,0.0175 v 0 l -3.073114,0.0331 v 0 l -3.350864,0.0381 v 0 l -3.628613,0.043 v 0 l -2.310487,0.0282 v 0 l -3.23619,0.0403 v 0 l -4.295212,0.0549 v 0 l -4.57296,0.0598 v 0 l -3.858349,0.0514 v 0 l -6.120821,0.083 v 0 l -4.302748,0.0593 v 0 l -7.957542,0.11142 v 0 l -8.501931,0.12111 v 0 l -7.720658,0.11151 v 0 l -4.010314,0.0584 48.46451,-55.112198 0.43919,-0.500616 v 0 l 0.437999,-0.498141 v 0 l 0.436707,-0.495795 v 0 l 2.160689,-2.448356 v 0 l 0.426871,-0.484459 v 0 l 0.424883,-0.483027 v 0 l 0.422795,-0.481723 c 0.07029,-0.08019 0.140482,-0.160323 0.210584,-0.240414 l 0.419477,-0.480013 c 0.06972,-0.07992 0.139345,-0.159794 0.208869,-0.239632 l 0.415936,-0.478597 v 0 l 0.413449,-0.477815 C 67.422582,37.708059 71.703453,32.270572 74.745093,26.034809 78.121403,16.498812 74.684314,9.3830549 71.175769,5.0715159 70.904875,4.738623 70.633555,4.4224471 70.364913,4.1231648 69.168868,2.5921449 69.983222,0.04138936 72.260873,0.04138936 c 0.185589,0 0.374949,-0.0028683 0.568062,-0.0065685 l 0.44083,-0.0088699 c 0.09937,-0.0019012 0.199667,-0.0036285 0.300901,-0.0049273 l 0.420536,-0.005038 v 0 l 0.430868,-0.0044288 v 0 l 0.292944,-0.00259379 v 0 l 0.75213,-0.00513999 v 0 L 76.08898,0.00119436 v 0 z"
           id="use125"
           style="fill:url(#radialGradient-1);fill-opacity:0.6" />
      </g>
      <g
         id="Fill-12-Copy">
        <path
           d="M 56.196438,50.587103 C 35.220404,74.192272 10.255486,102.91275 0.77917889,113.70144 -1.0463188,115.77975 0.72300973,117.74229 2.1370673,117.9854 72.836411,130.14003 95.283895,96.823081 100.28408,81.59289 107.1253,60.755037 97.459001,50.587103 91.988557,47.271313 73.438596,36.027661 59.675367,46.672126 56.196438,50.587103 Z"
           id="use128"
           style="fill:#93e65c" />
        <path
           d="M 56.196438,50.587103 C 35.220404,74.192272 10.255486,102.91275 0.77917889,113.70144 -1.0463188,115.77975 0.72300973,117.74229 2.1370673,117.9854 72.836411,130.14003 95.283895,96.823081 100.28408,81.59289 107.1253,60.755037 97.459001,50.587103 91.988557,47.271313 73.438596,36.027661 59.675367,46.672126 56.196438,50.587103 Z"
           id="use130"
           style="mix-blend-mode:overlay;fill:url(#linearGradient-3);fill-opacity:0.75" />
      </g>
    </g>
  </g>
</svg>
